<svg width="80" height="80" viewBox="0 0 80 80" fill="none" xmlns="http://www.w3.org/2000/svg">
<path d="M36 60.3364C43.7215 56.3475 49 48.2902 49 39C49 25.7452 38.2548 15 25 15C11.7452 15 1 25.7452 1 39C1 48.2902 6.27852 56.3475 14 60.3364M36 55.706C41.4222 52.1285 45 45.9821 45 39C45 27.9543 36.0457 19 25 19C13.9543 19 5 27.9543 5 39C5 45.9821 8.57778 52.1285 14 55.706M18 56C18 58.8284 18 60.2426 18.8787 61.1213C19.7574 62 21.1716 62 24 62H26C28.8284 62 30.2426 62 31.1213 61.1213C32 60.2426 32 58.8284 32 56M18 59C18 61.8284 18 63.2426 18.8787 64.1213C19.7574 65 21.1716 65 24 65H26C28.8284 65 30.2426 65 31.1213 64.1213C32 63.2426 32 61.8284 32 59M40.75 38.75C40.75 44.0946 38.0879 48.8175 34.0173 51.6649C33.4224 52.081 33.125 52.289 32.9845 52.4165C32.3702 52.9737 32.1284 53.438 32.0239 54.2607C32 54.4489 32 54.7029 32 55.211C32 55.9443 32 56.311 31.9362 56.6153C31.6919 57.7811 30.7811 58.6919 29.6153 58.9362C29.311 59 28.9443 59 28.211 59H21.789C21.0557 59 20.689 59 20.3847 58.9362C19.2189 58.6919 18.3081 57.7811 18.0638 56.6153C18 56.311 18 55.9443 18 55.211C18 54.7029 18 54.4489 17.9761 54.2607C17.8716 53.438 17.6298 52.9737 17.0155 52.4165C16.875 52.289 16.5776 52.081 15.9827 51.6649C11.9121 48.8175 9.25 44.0946 9.25 38.75C9.25 30.0515 16.3015 23 25 23C33.6985 23 40.75 30.0515 40.75 38.75ZM35 33C35 34.6569 33.6569 36 32 36C30.3431 36 29 34.6569 29 33C29 31.3431 30.3431 30 32 30C33.6569 30 35 31.3431 35 33Z" stroke="#222F2F"/>
</svg>
