<svg width="80" height="80" viewBox="0 0 80 80" fill="none" xmlns="http://www.w3.org/2000/svg">
<path d="M10.1472 43.0363L9.9559 42.5743H9.9559L10.1472 43.0363ZM10.1472 37.4906L9.9559 37.9526H9.9559L10.1472 37.4906ZM49.4154 26.7709L49.2237 26.3091L49.4154 26.7709ZM45.2636 23.9685L45.7636 23.9737V23.9737L45.2636 23.9685ZM18.7364 23.9685L18.2364 23.9737V23.9737L18.7364 23.9685ZM18.7364 56.5584L18.2364 56.5532L18.7364 56.5584ZM45.2636 56.5584L45.7636 56.5532V56.5532L45.2636 56.5584ZM18.5201 55.406L18.0562 55.5926L18.5201 55.406ZM17.8579 26.1213L17.5043 25.7678V25.7678L17.8579 26.1213ZM15.744 27L15.7452 27.5H15.7452L15.744 27ZM13.6152 26.1213L13.9688 25.7678L13.6152 26.1213ZM17.8579 21.8787L18.2114 21.5251L17.8579 21.8787ZM48.2556 53.5269L48.2543 53.0269L48.2556 53.5269ZM46.1421 26.1213L45.7886 26.4749V26.4749L46.1421 26.1213ZM46.1421 21.8787L46.4957 22.2322V22.2322L46.1421 21.8787ZM50.3848 21.8787L50.7383 21.5251L50.3848 21.8787ZM50.3848 26.1213L50.0312 25.7678L50.3848 26.1213ZM48.2556 27L48.2569 26.5H48.2569L48.2556 27ZM13.6152 58.6482L13.2617 59.0018L13.6152 58.6482ZM13.6152 54.4056L13.2617 54.052H13.2617L13.6152 54.4056ZM15.744 53.5269L15.7428 54.0269H15.7428L15.744 53.5269ZM17.8579 54.4056L18.2114 54.052L17.8579 54.4056ZM17.8579 58.6482L17.5043 58.2947L17.8579 58.6482ZM49.3417 17V16.5V17ZM55.7936 21.9796L55.3346 22.1779V22.1779L55.7936 21.9796ZM8.20641 21.9796L7.74739 21.7814L8.20641 21.9796ZM14.6583 17V17.5V17ZM2.57436 44.9796L3.03338 44.7814H3.03338L2.57436 44.9796ZM2.57436 35.0204L3.03338 35.2186L2.57436 35.0204ZM1 40H0.5H1ZM14.6583 63V63.5V63ZM8.20641 58.0204L7.74739 58.2186L8.20641 58.0204ZM55.7936 58.0204L55.3346 57.8221L55.7936 58.0204ZM49.3417 63V62.5V63ZM61.4256 44.9796L61.8847 45.1779L61.4256 44.9796ZM61.4256 35.0204L61.8847 34.8221L61.4256 35.0204ZM11.5 40.2635C11.5 40.6041 11.4322 40.9276 11.3097 41.2221L12.2331 41.6059C12.4052 41.1919 12.5 40.7381 12.5 40.2635H11.5ZM11.3097 41.2221C11.056 41.8326 10.5667 42.3214 9.9559 42.5743L10.3386 43.4982C11.194 43.1439 11.8778 42.4608 12.2331 41.6059L11.3097 41.2221ZM9.9559 42.5743C9.66208 42.696 9.33954 42.7635 9 42.7635V43.7635C9.47314 43.7635 9.92556 43.6693 10.3386 43.4982L9.9559 42.5743ZM9 42.7635C7.61929 42.7635 6.5 41.6442 6.5 40.2635H5.5C5.5 42.1965 7.067 43.7635 9 43.7635V42.7635ZM6.5 40.2635C6.5 38.8827 7.61929 37.7635 9 37.7635V36.7635C7.067 36.7635 5.5 38.3305 5.5 40.2635H6.5ZM9 37.7635C9.33954 37.7635 9.66208 37.8309 9.9559 37.9526L10.3386 37.0287C9.92556 36.8576 9.47314 36.7635 9 36.7635V37.7635ZM9.9559 37.9526C10.5667 38.2056 11.056 38.6944 11.3097 39.3048L12.2331 38.921C11.8778 38.0661 11.194 37.383 10.3386 37.0287L9.9559 37.9526ZM11.3097 39.3048C11.4322 39.5993 11.5 39.9228 11.5 40.2635H12.5C12.5 39.7888 12.4052 39.335 12.2331 38.921L11.3097 39.3048ZM57.5 40.2635C57.5 41.6442 56.3807 42.7635 55 42.7635V43.7635C56.933 43.7635 58.5 42.1965 58.5 40.2635H57.5ZM55 42.7635C54.6603 42.7635 54.3377 42.696 54.0438 42.5742L53.661 43.498C54.0741 43.6692 54.5267 43.7635 55 43.7635V42.7635ZM54.0438 42.5742C53.4331 42.3212 52.9439 41.8324 52.6902 41.222L51.7668 41.6058C52.122 42.4606 52.8057 43.1436 53.661 43.498L54.0438 42.5742ZM52.6902 41.222C52.5678 40.9275 52.5 40.604 52.5 40.2635H51.5C51.5 40.738 51.5947 41.1917 51.7668 41.6058L52.6902 41.222ZM52.5 40.2635C52.5 39.9229 52.5678 39.5994 52.6902 39.3049L51.7668 38.9212C51.5947 39.3352 51.5 39.7889 51.5 40.2635H52.5ZM52.6902 39.3049C52.9439 38.6945 53.4331 38.2057 54.0438 37.9527L53.661 37.0289C52.8057 37.3833 52.122 38.0663 51.7668 38.9211L52.6902 39.3049ZM54.0438 37.9527C54.3377 37.8309 54.6603 37.7635 55 37.7635V36.7635C54.5267 36.7635 54.0741 36.8577 53.661 37.0289L54.0438 37.9527ZM55 37.7635C56.3807 37.7635 57.5 38.8827 57.5 40.2635H58.5C58.5 38.3305 56.933 36.7635 55 36.7635V37.7635ZM54.3144 37.2996L49.8774 26.5796L48.9535 26.9621L53.3904 37.682L54.3144 37.2996ZM53.3904 42.8449L48.9535 53.5648L49.8774 53.9473L54.3144 43.2273L53.3904 42.8449ZM10.6092 37.6818L15.0462 26.9619L14.1222 26.5795L9.68525 37.2994L10.6092 37.6818ZM9.68525 43.2275L14.1222 53.9474L15.0462 53.565L10.6092 42.8451L9.68525 43.2275ZM45.2636 23.4685H18.7364V24.4685H45.2636V23.4685ZM18.7364 57.0584H45.2636V56.0584H18.7364V57.0584ZM31.8081 50.2725L45.2881 55.868L45.6715 54.9444L32.1915 49.3489L31.8081 50.2725ZM18.7118 55.8678L32.1915 50.2725L31.8081 49.3489L18.3284 54.9442L18.7118 55.8678ZM45.2881 24.6589L31.8081 30.2544L32.1915 31.178L45.6715 25.5825L45.2881 24.6589ZM18.3284 25.5827L31.8081 31.178L32.1915 30.2544L18.7118 24.6591L18.3284 25.5827ZM17.5043 25.7678C17.0176 26.2544 16.3813 26.4984 15.7428 26.5L15.7452 27.5C16.6373 27.4978 17.5303 27.156 18.2114 26.4749L17.5043 25.7678ZM15.7428 26.5C15.4133 26.5008 15.0842 26.437 14.776 26.309L14.3924 27.2324C14.8247 27.4121 15.2853 27.5011 15.7452 27.5L15.7428 26.5ZM14.776 26.309C14.4831 26.1873 14.2082 26.0072 13.9688 25.7678L13.2617 26.4749C13.5953 26.8085 13.9806 27.0614 14.3924 27.2324L14.776 26.309ZM13.9688 25.7678C12.9925 24.7915 12.9925 23.2085 13.9688 22.2322L13.2617 21.5251C11.8948 22.892 11.8948 25.108 13.2617 26.4749L13.9688 25.7678ZM13.9688 22.2322C14.9451 21.2559 16.528 21.2559 17.5043 22.2322L18.2114 21.5251C16.8446 20.1583 14.6285 20.1583 13.2617 21.5251L13.9688 22.2322ZM17.5043 22.2322C17.9859 22.7138 18.2298 23.342 18.2364 23.9737L19.2364 23.9633C19.2272 23.0806 18.8854 22.1991 18.2114 21.5251L17.5043 22.2322ZM18.2364 23.9737C18.2398 24.3005 18.1796 24.6275 18.0562 24.9343L18.984 25.3074C19.1571 24.877 19.2411 24.4196 19.2364 23.9633L18.2364 23.9737ZM18.0562 24.9343C17.9345 25.2371 17.7508 25.5212 17.5043 25.7678L18.2114 26.4749C18.555 26.1313 18.8129 25.733 18.984 25.3074L18.0562 24.9343ZM50.0312 58.2947C49.0549 59.271 47.472 59.271 46.4957 58.2947L45.7886 59.0018C47.1554 60.3686 49.3715 60.3686 50.7383 59.0018L50.0312 58.2947ZM46.4957 58.2947C46.0141 57.8131 45.7702 57.1849 45.7636 56.5532L44.7636 56.5636C44.7728 57.4463 45.1146 58.3278 45.7886 59.0018L46.4957 58.2947ZM45.7636 56.5532C45.7602 56.2264 45.8204 55.8995 45.9437 55.5927L45.0159 55.2197C44.8429 55.6501 44.7589 56.1074 44.7636 56.5636L45.7636 56.5532ZM45.9437 55.5927C46.0655 55.2899 46.2491 55.0057 46.4957 54.7591L45.7886 54.052C45.445 54.3957 45.187 54.7941 45.0159 55.2197L45.9437 55.5927ZM46.4957 54.7591C46.9823 54.2726 47.6185 54.0286 48.2569 54.0269L48.2543 53.0269C47.3624 53.0293 46.4696 53.3711 45.7886 54.052L46.4957 54.7591ZM48.2569 54.0269C48.5863 54.0261 48.9155 54.0898 49.2237 54.2178L49.6072 53.2943C49.1748 53.1147 48.7142 53.0257 48.2543 53.0269L48.2569 54.0269ZM49.2237 54.2178C49.5167 54.3395 49.7917 54.5196 50.0312 54.7591L50.7383 54.052C50.4046 53.7183 50.0191 53.4654 49.6072 53.2943L49.2237 54.2178ZM50.0312 54.7591C51.0075 55.7355 51.0075 57.3184 50.0312 58.2947L50.7383 59.0018C52.1052 57.6349 52.1052 55.4189 50.7383 54.052L50.0312 54.7591ZM46.4957 25.7678C46.2491 25.5212 46.0655 25.237 45.9437 24.9342L45.0159 25.3073C45.187 25.7329 45.445 26.1312 45.7886 26.4749L46.4957 25.7678ZM45.9437 24.9342C45.8204 24.6274 45.7602 24.3005 45.7636 23.9737L44.7636 23.9633C44.7589 24.4195 44.8429 24.8768 45.0159 25.3073L45.9437 24.9342ZM45.7636 23.9737C45.7702 23.342 46.0141 22.7138 46.4957 22.2322L45.7886 21.5251C45.1146 22.1991 44.7728 23.0806 44.7636 23.9633L45.7636 23.9737ZM46.4957 22.2322C47.472 21.2559 49.0549 21.2559 50.0312 22.2322L50.7383 21.5251C49.3715 20.1583 47.1554 20.1583 45.7886 21.5251L46.4957 22.2322ZM50.0312 22.2322C51.0075 23.2085 51.0075 24.7915 50.0312 25.7678L50.7383 26.4749C52.1052 25.108 52.1052 22.892 50.7383 21.5251L50.0312 22.2322ZM50.0312 25.7678C49.7917 26.0073 49.5167 26.1874 49.2237 26.3091L49.6072 27.2326C50.0191 27.0616 50.4046 26.8086 50.7383 26.4749L50.0312 25.7678ZM49.2237 26.3091C48.9155 26.4371 48.5863 26.5009 48.2569 26.5L48.2543 27.5C48.7142 27.5012 49.1748 27.4122 49.6072 27.2326L49.2237 26.3091ZM48.2569 26.5C47.6185 26.4983 46.9823 26.2544 46.4957 25.7678L45.7886 26.4749C46.4696 27.1558 47.3624 27.4977 48.2543 27.5L48.2569 26.5ZM13.9688 58.2947C12.9925 57.3184 12.9925 55.7355 13.9688 54.7591L13.2617 54.052C11.8948 55.4189 11.8948 57.6349 13.2617 59.0018L13.9688 58.2947ZM13.9688 54.7591C14.2082 54.5197 14.4831 54.3396 14.776 54.2179L14.3924 53.2945C13.9806 53.4655 13.5953 53.7184 13.2617 54.052L13.9688 54.7591ZM14.776 54.2179C15.0842 54.0899 15.4133 54.0261 15.7428 54.0269L15.7452 53.0269C15.2853 53.0258 14.8247 53.1148 14.3924 53.2945L14.776 54.2179ZM15.7428 54.0269C16.3813 54.0285 17.0176 54.2725 17.5043 54.7591L18.2114 54.052C17.5303 53.3709 16.6373 53.0291 15.7452 53.0269L15.7428 54.0269ZM17.5043 54.7591C17.7508 55.0057 17.9345 55.2898 18.0562 55.5926L18.984 55.2195C18.8129 54.7939 18.555 54.3956 18.2114 54.052L17.5043 54.7591ZM18.0562 55.5926C18.1796 55.8994 18.2398 56.2264 18.2364 56.5532L19.2364 56.5636C19.2411 56.1074 19.1571 55.65 18.984 55.2195L18.0562 55.5926ZM18.2364 56.5532C18.2298 57.1849 17.9859 57.8131 17.5043 58.2947L18.2114 59.0018C18.8854 58.3278 19.2271 57.4463 19.2364 56.5636L18.2364 56.5532ZM17.5043 58.2947C16.528 59.271 14.9451 59.271 13.9688 58.2947L13.2617 59.0018C14.6285 60.3686 16.8446 60.3686 18.2114 59.0018L17.5043 58.2947ZM60.9666 44.7814L55.3346 57.8221L56.2526 58.2186L61.8847 45.1779L60.9666 44.7814ZM49.3417 62.5H14.6583V63.5H49.3417V62.5ZM8.66543 57.8221L3.03338 44.7814L2.11534 45.1779L7.74739 58.2186L8.66543 57.8221ZM3.03338 35.2186L8.66543 22.1779L7.74739 21.7814L2.11534 34.8221L3.03338 35.2186ZM14.6583 17.5L49.3417 17.5V16.5L14.6583 16.5V17.5ZM55.3346 22.1779L60.9666 35.2186L61.8847 34.8221L56.2526 21.7814L55.3346 22.1779ZM49.3417 17.5C50.4042 17.5 51.1532 17.501 51.746 17.5791C52.3198 17.6547 52.7066 17.7985 53.0493 18.063L53.6603 17.2713C53.1387 16.8687 52.5685 16.6789 51.8766 16.5877C51.2038 16.499 50.3784 16.5 49.3417 16.5V17.5ZM56.2526 21.7814C55.7313 20.5742 55.3282 19.6399 54.9454 18.926C54.5604 18.2078 54.1729 17.6669 53.6603 17.2713L53.0493 18.063C53.4011 18.3345 53.7082 18.7347 54.0641 19.3985C54.4222 20.0664 54.8063 20.9548 55.3346 22.1779L56.2526 21.7814ZM8.66543 22.1779C9.19366 20.9548 9.57779 20.0664 9.9359 19.3985C10.2918 18.7347 10.5989 18.3345 10.9507 18.063L10.3397 17.2713C9.82709 17.6669 9.43959 18.2078 9.05457 18.926C8.6718 19.6399 8.26874 20.5742 7.74739 21.7814L8.66543 22.1779ZM14.6583 16.5C13.6216 16.5 12.7962 16.499 12.1234 16.5877C11.4315 16.6789 10.8613 16.8687 10.3397 17.2713L10.9507 18.063C11.2934 17.7985 11.6802 17.6547 12.254 17.5791C12.8468 17.501 13.5958 17.5 14.6583 17.5V16.5ZM3.03338 44.7814C1.96792 42.3144 1.5 41.2075 1.5 40H0.5C0.5 41.4611 1.08166 42.7844 2.11534 45.1779L3.03338 44.7814ZM2.11534 34.8221C1.08166 37.2155 0.5 38.5389 0.5 40H1.5C1.5 38.7925 1.96792 37.6856 3.03338 35.2186L2.11534 34.8221ZM14.6583 62.5C13.5958 62.5 12.8468 62.499 12.254 62.4209C11.6802 62.3453 11.2934 62.2015 10.9507 61.937L10.3397 62.7287C10.8613 63.1313 11.4315 63.3211 12.1234 63.4123C12.7962 63.501 13.6216 63.5 14.6583 63.5V62.5ZM7.74739 58.2186C8.26874 59.4258 8.67179 60.3601 9.05457 61.074C9.43959 61.7922 9.82709 62.3331 10.3397 62.7287L10.9507 61.937C10.5988 61.6655 10.2918 61.2653 9.9359 60.6015C9.57779 59.9336 9.19366 59.0452 8.66543 57.8221L7.74739 58.2186ZM55.3346 57.8221C54.8063 59.0452 54.4222 59.9336 54.0641 60.6015C53.7082 61.2653 53.4011 61.6655 53.0493 61.937L53.6603 62.7287C54.1729 62.3331 54.5604 61.7922 54.9454 61.074C55.3282 60.3601 55.7313 59.4258 56.2526 58.2186L55.3346 57.8221ZM49.3417 63.5C50.3784 63.5 51.2038 63.501 51.8766 63.4123C52.5685 63.3211 53.1387 63.1313 53.6603 62.7287L53.0493 61.937C52.7066 62.2015 52.3198 62.3453 51.746 62.4209C51.1532 62.499 50.4042 62.5 49.3417 62.5V63.5ZM61.8847 45.1779C62.9183 42.7844 63.5 41.4611 63.5 40H62.5C62.5 41.2075 62.0321 42.3144 60.9666 44.7814L61.8847 45.1779ZM60.9666 35.2186C62.0321 37.6856 62.5 38.7925 62.5 40H63.5C63.5 38.5389 62.9183 37.2156 61.8847 34.8221L60.9666 35.2186ZM11.5797 41.8758L31.8081 50.2725L32.1915 49.3489L11.9631 40.9522L11.5797 41.8758ZM32.1915 50.2725L52.4202 41.8757L52.0368 40.9521L31.8081 49.3489L32.1915 50.2725ZM31.8081 30.2544L11.5797 38.6511L11.9631 39.5747L32.1915 31.178L31.8081 30.2544ZM31.8081 31.178L52.0368 39.5748L52.4202 38.6512L32.1915 30.2544L31.8081 31.178Z" fill="#222F2F"/>
</svg>
