<svg width="80" height="80" viewBox="0 0 80 80" fill="none" xmlns="http://www.w3.org/2000/svg">
<path d="M7.2235 42.9992C8.26031 49.8918 12.8146 55.6325 19 58.335M30 59.7757C36.8926 58.7389 42.6333 54.1846 45.3358 47.9992M46.7765 36.9992C45.7397 30.1066 41.1854 24.3659 35 21.6633M24 20.2227C17.1074 21.2595 11.3667 25.8137 8.66418 31.9992M24 60C24 61.6569 25.3431 63 27 63C28.6569 63 30 61.6569 30 60C30 58.3431 28.6569 57 27 57C25.3431 57 24 58.3431 24 60ZM47 43C48.6569 43 50 41.6569 50 40C50 38.3431 48.6569 37 47 37C45.3431 37 44 38.3431 44 40C44 41.6569 45.3431 43 47 43ZM24 20C24 21.6569 25.3431 23 27 23C28.6569 23 30 21.6569 30 20C30 18.3431 28.6569 17 27 17C25.3431 17 24 18.3431 24 20ZM7 43C8.65685 43 10 41.6569 10 40C10 38.3431 8.65685 37 7 37C5.34315 37 4 38.3431 4 40C4 41.6569 5.34315 43 7 43ZM53 40C53 54.3594 41.3594 66 27 66C12.6406 66 1 54.3594 1 40C1 25.6406 12.6406 14 27 14C41.3594 14 53 25.6406 53 40Z" stroke="#222F2F"/>
</svg>
