<svg width="200" height="180" viewBox="0 0 200 180" fill="none" xmlns="http://www.w3.org/2000/svg">
<path d="M173.61 55.1058C173.847 59.2183 173.847 64.2882 173.847 70.8083V109.192C173.847 123.849 173.847 131.178 171.164 136.776C168.804 141.7 165.038 145.704 160.406 148.213C155.141 151.065 148.248 151.065 134.462 151.065H65.5389C51.753 151.065 44.86 151.065 39.5945 148.213C34.9628 145.704 31.1972 141.7 28.8372 136.776C26.1543 131.178 26.1543 123.849 26.1543 109.192V70.8083C26.1543 64.2882 26.1543 59.2183 26.3905 55.1058M173.61 55.1058C173.316 49.9736 172.653 46.3324 171.164 43.2245C168.804 38.3002 165.038 34.2966 160.406 31.7875C155.141 28.9351 148.248 28.9351 134.462 28.9351H65.5389C51.753 28.9351 44.86 28.9351 39.5945 31.7875C34.9628 34.2966 31.1972 38.3002 28.8372 43.2245C27.3478 46.3324 26.6852 49.9736 26.3905 55.1058M173.61 55.1058L124.18 96.1761C115.532 103.327 111.208 106.903 106.434 108.277C102.221 109.49 97.7802 109.49 93.5673 108.277C88.7926 106.903 84.4687 103.327 75.8207 96.1761L26.3905 55.1058" stroke="white" stroke-linecap="round" stroke-linejoin="round"/>
<rect x="12.8086" y="14.1687" width="174.385" height="151.663" rx="36.4231" stroke="white"/>
<rect x="0.5" y="0.598633" width="199" height="178.803" rx="42.5769" stroke="white"/>
</svg>
