<svg width="80" height="80" viewBox="0 0 80 80" fill="none" xmlns="http://www.w3.org/2000/svg">
<path d="M33 44C33 52.8366 25.8366 60 17 60C8.16344 60 1 52.8366 1 44C1 35.1634 8.16344 28 17 28C25.8366 28 33 35.1634 33 44Z" stroke="#222F2F"/>
<path d="M29 44C29 50.6274 23.6274 56 17 56C10.3726 56 5 50.6274 5 44C5 37.3726 10.3726 32 17 32C23.6274 32 29 37.3726 29 44Z" stroke="#222F2F"/>
<path d="M20 44C20 45.6569 18.6569 47 17 47C15.3431 47 14 45.6569 14 44C14 42.3431 15.3431 41 17 41C18.6569 41 20 42.3431 20 44Z" stroke="#222F2F"/>
<path d="M59 23C59 31.8366 51.8366 39 43 39C34.1634 39 27 31.8366 27 23C27 14.1634 34.1634 7 43 7C51.8366 7 59 14.1634 59 23Z" stroke="#222F2F"/>
<path d="M55 23C55 29.6274 49.6274 35 43 35C36.3726 35 31 29.6274 31 23C31 16.3726 36.3726 11 43 11C49.6274 11 55 16.3726 55 23Z" stroke="#222F2F"/>
<path d="M46 23C46 24.6569 44.6569 26 43 26C41.3431 26 40 24.6569 40 23C40 21.3431 41.3431 20 43 20C44.6569 20 46 21.3431 46 23Z" stroke="#222F2F"/>
<path d="M64 56C64 64.8366 56.8366 72 48 72C39.1634 72 32 64.8366 32 56C32 47.1634 39.1634 40 48 40C56.8366 40 64 47.1634 64 56Z" stroke="#222F2F"/>
<path d="M60 56C60 62.6274 54.6274 68 48 68C41.3726 68 36 62.6274 36 56C36 49.3726 41.3726 44 48 44C54.6274 44 60 49.3726 60 56Z" stroke="#222F2F"/>
<path d="M51 56C51 57.6569 49.6569 59 48 59C46.3431 59 45 57.6569 45 56C45 54.3431 46.3431 53 48 53C49.6569 53 51 54.3431 51 56Z" stroke="#222F2F"/>
</svg>
