<svg width="80" height="80" viewBox="0 0 80 80" fill="none" xmlns="http://www.w3.org/2000/svg">
<path d="M11 58V24C11 18.3431 11 15.5147 12.7574 13.7574C14.5147 12 17.3431 12 23 12H41M11 58C11 63.6569 11 66.4853 12.7574 68.2426C14.5147 70 17.3431 70 23 70H41C46.6569 70 49.4853 70 51.2426 68.2426C53 66.4853 53 63.6569 53 58V24C53 18.3431 53 15.5147 51.2426 13.7574C49.4853 12 46.6569 12 41 12M11 58C11 61.7712 11 63.6569 12.1716 64.8284C13.3431 66 15.2288 66 19 66H41C44.7712 66 46.6569 66 47.8284 64.8284C49 63.6569 49 61.7712 49 58V20C49 16.2288 49 14.3431 47.8284 13.1716C46.6569 12 44.7712 12 41 12M11 22H38M11 26H38M11 30H38M32.0023 47.7528L34.9208 48.9804L36.1167 46.0482C36.4067 46.0164 36.7015 46 37 46C37.2985 46 37.5933 46.0164 37.8833 46.0482L39.0792 48.9804L41.9977 47.7528C42.4587 48.1221 42.8779 48.5413 43.2472 49.0023L42.0196 51.9208L44.9518 53.1167C44.9836 53.4067 45 53.7015 45 54C45 54.2985 44.9836 54.5933 44.9518 54.8833L42.0196 56.0792L43.2472 58.9977C42.8779 59.4587 42.4587 59.8779 41.9977 60.2472L39.0792 59.0196L37.8833 61.9518C37.5933 61.9836 37.2985 62 37 62C36.7015 62 36.4067 61.9836 36.1167 61.9518L34.9208 59.0196L32.0023 60.2472C31.5413 59.8779 31.1221 59.4587 30.7528 58.9977L31.9804 56.0792L29.0482 54.8833C29.0164 54.5933 29 54.2985 29 54C29 53.7015 29.0164 53.4067 29.0482 53.1167L31.9804 51.9208L30.7528 49.0023C31.1221 48.5413 31.5413 48.1221 32.0023 47.7528ZM40 54C40 55.6569 38.6569 57 37 57C35.3431 57 34 55.6569 34 54C34 52.3431 35.3431 51 37 51C38.6569 51 40 52.3431 40 54Z" stroke="#222F2F"/>
</svg>
