<?xml version="1.0" standalone="no"?>
<!DOCTYPE svg PUBLIC "-//W3C//DTD SVG 20010904//EN"
 "http://www.w3.org/TR/2001/REC-SVG-20010904/DTD/svg10.dtd">
<svg version="1.0" xmlns="http://www.w3.org/2000/svg"
 width="96.000000pt" height="96.000000pt" viewBox="0 0 96.000000 96.000000"
 preserveAspectRatio="xMidYMid meet">
<metadata>
Created by potrace 1.14, written by Peter Selinger 2001-2017
</metadata>
<g transform="translate(0.000000,96.000000) scale(0.100000,-0.100000)"
fill="#000000" stroke="none">
<path d="M0 480 l0 -480 480 0 480 0 0 480 0 480 -480 0 -480 0 0 -480z m538
166 c2 -35 9 -54 24 -66 22 -17 18 -40 -8 -40 -11 0 -14 -17 -14 -80 0 -74 1
-80 21 -80 15 0 20 -5 17 -22 -4 -30 -38 -35 -69 -9 -21 17 -24 29 -28 105 -1
47 -7 86 -12 86 -12 0 -12 37 0 44 5 3 12 27 16 53 8 58 12 65 33 61 13 -2 18
-16 20 -52z m-230 -142 l-3 -169 -25 0 -25 0 -5 145 c-3 89 -9 144 -15 143 -5
-2 -10 7 -10 20 0 16 9 25 35 34 19 6 38 8 43 4 4 -4 6 -84 5 -177z m120 0
l-3 -169 -25 0 -25 0 -5 145 c-3 89 -9 144 -15 143 -5 -2 -10 7 -10 20 0 16 9
25 35 34 19 6 38 8 43 4 4 -4 6 -84 5 -177z m211 69 c5 -10 12 -40 16 -66 9
-58 15 -54 26 14 9 60 23 79 41 61 10 -10 6 -42 -15 -148 -14 -75 -32 -142
-38 -150 -15 -18 -43 -18 -59 1 -14 16 -6 35 16 35 20 0 18 22 -12 144 -14 59
-22 111 -19 116 10 16 33 12 44 -7z"/>
</g>
</svg>
