<svg width="80" height="80" viewBox="0 0 80 80" fill="none" xmlns="http://www.w3.org/2000/svg">
<path d="M28 53.735C28 57.2355 28 58.9858 26.9895 59.6969C25.979 60.408 24.3527 59.8022 21.1 58.5906L11.9 55.1637C8.64731 53.952 7.02096 53.3462 6.01048 51.8823C5 50.4185 5 48.6682 5 45.1676V35.2664C5 31.7659 5 30.0156 6.01048 29.3045C6.28721 29.1097 6.61014 29.0138 7 29.002M28 49.7453C28 52.6812 28 54.1492 27.1653 54.7456C26.3305 55.342 24.987 54.8339 22.3 53.8177L14.7 50.9435C12.013 49.9273 10.6695 49.4192 9.83475 48.1915C9 46.9637 9 45.4957 9 42.5597V35.8157C9 32.8797 9 31.4117 9.83475 30.8153C10.6695 30.2189 12.013 30.727 14.7 31.7432M9.04675 27.6245L20.4486 31.7906C24.4798 33.2635 26.4954 34 29 34C31.5046 34 33.5202 33.2635 37.5514 31.7906L48.9533 27.6245C52.9844 26.1516 55 25.4152 55 24.5C55 23.5848 52.9844 22.8484 48.9533 21.3755L37.5514 17.2094C33.5202 15.7365 31.5046 15 29 15C26.4954 15 24.4798 15.7365 20.4486 17.2094L9.04675 21.3755C5.01558 22.8484 3 23.5848 3 24.5C3 25.4152 5.01558 26.1516 9.04675 27.6245ZM38.1 62.3625L48.9 58.3828C52.7184 56.9757 54.6276 56.2722 55.8138 54.5722C57 52.8722 57 50.8396 57 46.7744V35.2763C57 31.2111 57 29.1786 55.8138 28.3528C54.6276 27.527 52.7184 28.2305 48.9 29.6375L38.1 33.6172C34.2816 35.0243 32.3724 35.7278 31.1862 37.4278C30 39.1278 30 41.1604 30 45.2256V56.7237C30 60.7889 30 62.8214 31.1862 63.6472C32.3724 64.473 34.2816 63.7695 38.1 62.3625ZM25 41C25 42.6569 23.6569 44 22 44C20.3431 44 19 42.6569 19 41C19 39.3431 20.3431 38 22 38C23.6569 38 25 39.3431 25 41ZM19.9 62.3625L9.1 58.3828C5.28162 56.9757 3.37243 56.2722 2.18622 54.5722C1 52.8722 1 50.8396 1 46.7744V35.2763C1 31.2111 1 29.1786 2.18622 28.3528C3.37243 27.527 5.28162 28.2305 9.1 29.6375L19.9 33.6172C23.7184 35.0243 25.6276 35.7278 26.8138 37.4278C28 39.1278 28 41.1604 28 45.2256V56.7237C28 60.7889 28 62.8214 26.8138 63.6472C25.6276 64.473 23.7184 63.7695 19.9 62.3625Z" stroke="#222F2F"/>
</svg>
